<svg width="960" height="960" viewBox="0 0 254 254" xmlns="http://www.w3.org/2000/svg"><g transform="translate(0,-37.708335)"><ellipse style="fill:#666;stroke-width:.713525" cx="126.99999" cy="230.85417" rx="127" ry="60.854168"/><ellipse style="fill:#ff0;fill-opacity:1;stroke:#ff0;stroke-width:.302174" cx="127.00181" cy="143.54166" rx="105.68237" ry="105.68224"/><path d="m126.86719 236.14591a92.604375 92.604257.0 110-185.208497 92.604377 92.604255.0 010 185.208497zm0 13.229a105.83347 105.83333.0 100-211.666493 105.83347 105.83333.0 000 211.666493z" style="stroke-width:13.2292"/><path d="m78.170028 165.26848a6.6666747 6.6666662.0 019.106657 2.43904 46.640058 46.639998.0 0040.426885 23.33331 46.640058 46.639998.0 0040.42639-23.33331 6.6666747 6.6666662.0 1111.54672 6.66661 59.973407 59.97333.0 01-51.97311 29.99986 59.973407 59.97333.0 01-51.973609-29.99986 6.6666747 6.6666662.0 012.434009-9.10663zm36.199842-40.89349c0 11.04026-5.97317 20.00026-13.33317 20.00026-7.360007.0-13.333177-8.96-13.333177-20.00026.0-11.03975 5.97317-19.99975 13.333177-19.99975 7.36.0 13.33317 8.96 13.33317 19.99975zm53.33375.0c0 11.04026-5.97367 20.00026-13.33367 20.00026-7.36001.0-13.3332-8.96-13.3332-20.00026.0-11.03975 5.97319-19.99975 13.3332-19.99975 7.36.0 13.33367 8.96 13.33367 19.99975z" style="stroke-width:13.3332"/></g></svg>